<?xml version="1.0" encoding="utf-8"?>
<!-- Generator: Adobe Illustrator 23.0.3, SVG Export Plug-In . SVG Version: 6.00 Build 0)  -->
<svg version="1.1" id="Layer_1" xmlns="http://www.w3.org/2000/svg" xmlns:xlink="http://www.w3.org/1999/xlink" x="0px" y="0px"
	 viewBox="0 0 1024 1024" style="enable-background:new 0 0 1024 1024;" xml:space="preserve">
<style type="text/css">
	.st0{fill:#FFFFFF;}
	.st1{fill:#80BFEF;}
	.st2{fill:#AADAFF;}
	.st3{fill:#D1DCE4;}
	.st4{fill:#2F499D;}
	.st5{fill:url(#SVGID_1_);}
	.st6{fill:url(#SVGID_2_);}
</style>
<g id="Core">
	<g>
		<g>
			<path class="st0" d="M344,853.59h-60c-6.6,0-12-4.5-12-10v-580c0-5.5,5.4-10,12-10h60c-6.6,0-12,4.5-12,10v580
				C332,849.09,337.4,853.59,344,853.59z"/>
		</g>
		<g>
			<path class="st1" d="M752,263.59v580c0,5.5-5.4,10-12,10h-60c6.6,0,12-4.5,12-10v-580c0-5.5-5.4-10-12-10h60
				C746.6,253.59,752,258.09,752,263.59z"/>
		</g>
		<g>
			<path class="st2" d="M724.14,263.59v580c0,5.5-6.36,10-14.14,10H314.01c-7.78,0-14.14-4.5-14.14-10v-580c0-5.5,6.36-10,14.14-10
				h395.99C717.77,253.59,724.14,258.09,724.14,263.59z"/>
		</g>
	</g>
	<ellipse class="st3" cx="512" cy="943.59" rx="240" ry="30"/>
</g>
<g id="Face">
	<g>
		<g>
			<g>
				<path class="st4" d="M760,255.86v198.68c-2.12,1.9-4.92,3.05-8,3.05s-5.88-1.15-8-3.05V271.32c0-5.35-5.22-9.73-11.6-9.73
					h-37.35c-1.9-2.12-3.05-4.92-3.05-8c0-3.08,1.15-5.88,3.05-8h52.55C754.42,245.59,760,250.21,760,255.86z"/>
				<path class="st4" d="M664,253.59c0,3.08-1.15,5.88-3.05,8H291.6c-6.38,0-11.6,4.38-11.6,9.73v39.22c-2.12,1.9-4.92,3.05-8,3.05
					c-3.08,0-5.88-1.15-8-3.05v-54.68c0-5.65,5.58-10.27,12.4-10.27h384.55C662.85,247.71,664,250.51,664,253.59z"/>
				<path class="st4" d="M280,376.64v113.9c-2.12,1.9-4.92,3.05-8,3.05c-3.08,0-5.88-1.15-8-3.05v-113.9c2.12-1.9,4.92-3.05,8-3.05
					C275.08,373.59,277.88,374.74,280,376.64z"/>
				<path class="st4" d="M760,536.64v314.68c0,5.65-5.58,10.27-12.4,10.27H276.4c-6.82,0-12.4-4.62-12.4-10.27V516.64
					c2.12-1.9,4.92-3.05,8-3.05c3.08,0,5.88,1.15,8,3.05v319.22c0,5.35,5.22,9.73,11.6,9.73h440.8c6.38,0,11.6-4.38,11.6-9.73
					V536.64c2.12-1.9,4.92-3.05,8-3.05S757.88,534.74,760,536.64z"/>
			</g>
		</g>
		<g>
			<path class="st4" d="M532,613.59c0,2.09-0.32,4.1-0.92,6c-2.54,8.12-10.12,14-19.08,14c-8.96,0-16.54-5.88-19.08-14
				c-0.6-1.9-0.92-3.91-0.92-6c0-11.05,8.95-20,20-20S532,602.54,532,613.59z"/>
			<g>
				<ellipse class="st1" cx="512" cy="619.59" rx="19.08" ry="14"/>
			</g>
		</g>
		<g>
			<g>
				<path class="st1" d="M468,553.59c0,8.84-7.16,16-16,16c-3.4,0-6.55-1.06-9.14-2.86c-4.15-2.89-6.86-7.7-6.86-13.14
					c0-8.84,7.16-16,16-16c5.44,0,10.25,2.71,13.14,6.86C466.94,547.04,468,550.19,468,553.59z"/>
			</g>
			<path class="st4" d="M468,553.59c0,8.84-7.16,16-16,16c-3.4,0-6.55-1.06-9.14-2.86c-1.8-2.59-2.86-5.74-2.86-9.14
				c0-8.84,7.16-16,16-16c3.4,0,6.55,1.06,9.14,2.86C466.94,547.04,468,550.19,468,553.59z"/>
		</g>
		<g>
			<g>
				<path class="st1" d="M588,553.59c0,8.84-7.16,16-16,16c-3.4,0-6.55-1.06-9.14-2.86c-4.15-2.89-6.86-7.7-6.86-13.14
					c0-8.84,7.16-16,16-16c5.44,0,10.25,2.71,13.14,6.86C586.94,547.04,588,550.19,588,553.59z"/>
			</g>
			<path class="st4" d="M588,553.59c0,8.84-7.16,16-16,16c-3.4,0-6.55-1.06-9.14-2.86c-1.8-2.59-2.86-5.74-2.86-9.14
				c0-8.84,7.16-16,16-16c3.4,0,6.55,1.06,9.14,2.86C586.94,547.04,588,550.19,588,553.59z"/>
		</g>
		
			<radialGradient id="SVGID_1_" cx="451.4" cy="625.3301" r="29.8667" gradientTransform="matrix(0.9375 0 0 0.9375 20.8125 35.3438)" gradientUnits="userSpaceOnUse">
			<stop  offset="0" style="stop-color:#2F499D;stop-opacity:0.1"/>
			<stop  offset="0.1762" style="stop-color:#304FA2;stop-opacity:0.0824"/>
			<stop  offset="0.4007" style="stop-color:#335EB1;stop-opacity:0.0599"/>
			<stop  offset="0.6513" style="stop-color:#3778C8;stop-opacity:0.0349"/>
			<stop  offset="0.9191" style="stop-color:#3D9DEA;stop-opacity:8.094154e-03"/>
			<stop  offset="1" style="stop-color:#3FA9F5;stop-opacity:0"/>
		</radialGradient>
		<circle class="st5" cx="444" cy="621.59" r="28"/>
		
			<radialGradient id="SVGID_2_" cx="596.4667" cy="625.3301" r="29.8667" gradientTransform="matrix(0.9375 0 0 0.9375 20.8125 35.3438)" gradientUnits="userSpaceOnUse">
			<stop  offset="0" style="stop-color:#2F499D;stop-opacity:0.1"/>
			<stop  offset="0.1762" style="stop-color:#304FA2;stop-opacity:0.0824"/>
			<stop  offset="0.4007" style="stop-color:#335EB1;stop-opacity:0.0599"/>
			<stop  offset="0.6513" style="stop-color:#3778C8;stop-opacity:0.0349"/>
			<stop  offset="0.9191" style="stop-color:#3D9DEA;stop-opacity:8.094154e-03"/>
			<stop  offset="1" style="stop-color:#3FA9F5;stop-opacity:0"/>
		</radialGradient>
		<circle class="st6" cx="580" cy="621.59" r="28"/>
	</g>
	<path class="st4" d="M478.6,834.15l-11.44,11.44h-11.3c0.04-0.04,0.08-0.09,0.12-0.13l16.97-16.97c0.77-0.78,1.8-1.16,2.83-1.16
		c1.02,0,2.04,0.38,2.82,1.16C480.16,830.05,480.16,832.59,478.6,834.15z"/>
	<path class="st4" d="M523.86,788.89l-16.97,16.97c-0.78,0.78-1.81,1.17-2.83,1.17c-1.02,0-2.05-0.39-2.83-1.17
		c-1.56-1.55-1.56-4.1,0-5.65l16.97-16.97c0.78-0.78,1.8-1.17,2.83-1.17c1.03,0,2.05,0.39,2.83,1.17
		C525.41,784.79,525.41,787.34,523.86,788.89z"/>
	<path class="st4" d="M569.11,743.64l-16.97,16.97c-0.78,0.78-1.8,1.16-2.82,1.16c-1.03,0-2.06-0.38-2.83-1.16
		c-1.56-1.56-1.56-4.1,0-5.66l16.97-16.97c0.78-0.77,1.8-1.16,2.82-1.16c1.03,0,2.06,0.39,2.83,1.16
		C570.67,739.54,570.67,742.08,569.11,743.64z"/>
	<path class="st4" d="M614.37,698.38l-16.97,16.97c-0.78,0.78-1.8,1.17-2.83,1.17c-1.03,0-2.05-0.39-2.83-1.17
		c-1.56-1.55-1.56-4.1,0-5.65l16.97-16.97c0.78-0.78,1.81-1.17,2.83-1.17c1.02,0,2.05,0.39,2.83,1.17
		C615.92,694.28,615.92,696.83,614.37,698.38z"/>
	<path class="st4" d="M659.62,653.13l-16.97,16.97c-0.77,0.78-1.8,1.17-2.83,1.17c-1.02,0-2.05-0.39-2.83-1.17
		c-1.55-1.56-1.55-4.1,0-5.66l16.98-16.97c0.77-0.78,1.8-1.16,2.83-1.16c1.02,0,2.04,0.38,2.82,1.16
		C661.18,649.03,661.18,651.57,659.62,653.13z"/>
	<path class="st4" d="M704.88,607.87l-16.97,16.97c-0.78,0.78-1.81,1.17-2.83,1.17c-1.02,0-2.05-0.39-2.83-1.17
		c-1.56-1.55-1.56-4.1,0-5.65l16.97-16.97c0.78-0.78,1.8-1.17,2.83-1.17c1.03,0,2.05,0.39,2.83,1.17
		C706.43,603.77,706.43,606.32,704.88,607.87z"/>
	<path class="st4" d="M744,557.44v11.31l-10.84,10.84c-0.78,0.78-1.8,1.17-2.83,1.17c-1.02,0-2.05-0.39-2.83-1.17
		c-1.55-1.56-1.55-4.1,0-5.66L744,557.44z"/>
</g>
</svg>
